<?xml version="1.0" ?><!DOCTYPE svg  PUBLIC '-//W3C//DTD SVG 1.1//EN'  'http://www.w3.org/Graphics/SVG/1.1/DTD/svg11.dtd' [
	<!ENTITY stroke_color "#666666">
	<!ENTITY fill_color "#ffffff">
]><svg enable-background="new 0 0 55 55" height="55px" id="svg7" inkscape:version="0.92.4 (5da689c313, 2019-01-14)" sodipodi:docname="computer-xo - Copy (2).svg" version="1.1" viewBox="0 0 55 55" width="55px" x="0px" xml:space="preserve" xmlns="http://www.w3.org/2000/svg" xmlns:cc="http://creativecommons.org/ns#" xmlns:dc="http://purl.org/dc/elements/1.1/" xmlns:inkscape="http://www.inkscape.org/namespaces/inkscape" xmlns:rdf="http://www.w3.org/1999/02/22-rdf-syntax-ns#" xmlns:sodipodi="http://sodipodi.sourceforge.net/DTD/sodipodi-0.dtd" xmlns:svg="http://www.w3.org/2000/svg" y="0px"><metadata id="metadata13"><rdf:RDF><cc:Work rdf:about=""><dc:format>image/svg+xml</dc:format><dc:type rdf:resource="http://purl.org/dc/dcmitype/StillImage"/></cc:Work></rdf:RDF></metadata><defs id="defs11"/><sodipodi:namedview bordercolor="#666666" borderopacity="1" gridtolerance="10" guidetolerance="10" id="namedview9" inkscape:current-layer="svg7" inkscape:cx="62.923729" inkscape:cy="25.429782" inkscape:pageopacity="0" inkscape:pageshadow="2" inkscape:window-height="837" inkscape:window-maximized="1" inkscape:window-width="1600" inkscape:window-x="1912" inkscape:window-y="122" inkscape:zoom="4.2909091" objecttolerance="10" pagecolor="#ffffff" showgrid="false"/><g display="block" id="stock-xo_1_">
	<path d="m 32.307276,36.729859 8.706673,8.499891 c 0.648131,0.63118 1.048903,1.500525 1.048903,2.467493 0,1.924678 -1.59878,3.486638 -3.573338,3.486638 -0.986849,0 -1.877167,-0.389648 -2.527021,-1.019145 L 27.25582,41.66232 18.550871,50.162211 c -0.646407,0.63118 -1.540173,1.019145 -2.528744,1.019145 -1.968526,0 -3.570753,-1.560276 -3.570753,-3.484955 0,-0.964443 0.400772,-1.837996 1.044594,-2.469176 l 8.708396,-8.501574 -8.706673,-8.49989 c -0.643821,-0.629497 -1.044594,-1.502208 -1.044594,-2.46581 0,-1.926362 1.597919,-3.489163 3.573339,-3.489163 0.985124,0 1.87889,0.391331 2.525297,1.02167 l 8.704087,8.501574 8.706673,-8.502416 c 0.649854,-0.630338 1.540172,-1.02167 2.528744,-1.02167 1.972835,0 3.573339,1.56196 3.573339,3.488322 0,0.964443 -0.402496,1.834629 -1.048903,2.467493 z" id="path2" inkscape:connector-curvature="0" style="fill:&fill_color;;stroke:&stroke_color;;stroke-width:6.13198233;stroke-miterlimit:4;stroke-dasharray:none"/>
	<circle cx="27.371" cy="10.849" fill="&fill_color;" id="circle4" r="8.122" stroke="&stroke_color;" stroke-width="3.5"/>
</g></svg>