<?xml version="1.0" ?><!DOCTYPE svg  PUBLIC '-//W3C//DTD SVG 1.1//EN'  'http://www.w3.org/Graphics/SVG/1.1/DTD/svg11.dtd' [
	<!ENTITY stroke_color "#666666">
	<!ENTITY fill_color "#ffffff">
]><svg enable-background="new 0 0 55 55" height="55px" id="svg7" inkscape:version="0.92.4 (5da689c313, 2019-01-14)" sodipodi:docname="computer-xo - Copy (2).svg" version="1.1" viewBox="0 0 55 55" width="55px" x="0px" xml:space="preserve" xmlns="http://www.w3.org/2000/svg" xmlns:cc="http://creativecommons.org/ns#" xmlns:dc="http://purl.org/dc/elements/1.1/" xmlns:inkscape="http://www.inkscape.org/namespaces/inkscape" xmlns:rdf="http://www.w3.org/1999/02/22-rdf-syntax-ns#" xmlns:sodipodi="http://sodipodi.sourceforge.net/DTD/sodipodi-0.dtd" xmlns:svg="http://www.w3.org/2000/svg" y="0px"><metadata id="metadata13"><rdf:RDF><cc:Work rdf:about=""><dc:format>image/svg+xml</dc:format><dc:type rdf:resource="http://purl.org/dc/dcmitype/StillImage"/></cc:Work></rdf:RDF></metadata><defs id="defs11"/><sodipodi:namedview bordercolor="#666666" borderopacity="1" gridtolerance="10" guidetolerance="10" id="namedview9" inkscape:current-layer="svg7" inkscape:cx="62.923729" inkscape:cy="25.429782" inkscape:pageopacity="0" inkscape:pageshadow="2" inkscape:window-height="837" inkscape:window-maximized="1" inkscape:window-width="1600" inkscape:window-x="1912" inkscape:window-y="122" inkscape:zoom="4.2909091" objecttolerance="10" pagecolor="#ffffff" showgrid="false"/><g display="block" id="stock-xo_1_">
	<path d="M33.233,35.1l10.102,10.1c0.752,0.75,1.217,1.783,1.217,2.932   c0,2.287-1.855,4.143-4.146,4.143c-1.145,0-2.178-0.463-2.932-1.211L27.372,40.961l-10.1,10.1c-0.75,0.75-1.787,1.211-2.934,1.211   c-2.284,0-4.143-1.854-4.143-4.141c0-1.146,0.465-2.184,1.212-2.934l10.104-10.102L11.409,24.995   c-0.747-0.748-1.212-1.785-1.212-2.93c0-2.289,1.854-4.146,4.146-4.146c1.143,0,2.18,0.465,2.93,1.214l10.099,10.102l10.102-10.103   c0.754-0.749,1.787-1.214,2.934-1.214c2.289,0,4.146,1.856,4.146,4.145c0,1.146-0.467,2.18-1.217,2.932L33.233,35.1z" fill="&fill_color;" id="path2" stroke="&stroke_color;" stroke-width="3.5" style="stroke-width:4.7;stroke-miterlimit:4;stroke-dasharray:none"/>
	<circle cx="27.371" cy="10.849" fill="&fill_color;" id="circle4" r="8.122" stroke="&stroke_color;" stroke-width="3.5"/>
</g></svg>